<?xml version="1.0" standalone="no"?>
<!DOCTYPE svg PUBLIC "-//W3C//DTD SVG 20010904//EN"
 "http://www.w3.org/TR/2001/REC-SVG-20010904/DTD/svg10.dtd">
<svg version="1.0" xmlns="http://www.w3.org/2000/svg"
 width="300.000000pt" height="300.000000pt" viewBox="0 0 300.000000 300.000000"
 preserveAspectRatio="xMidYMid meet">
<metadata>
Created by potrace 1.10, written by Peter Selinger 2001-2011
</metadata>
<g transform="translate(0.000000,300.000000) scale(0.100000,-0.100000)"
fill="#000000" stroke="none">
<path d="M110 2120 l0 -40 49 0 c34 0 56 -6 75 -21 l26 -20 0 -534 c0 -293 -3
-541 -6 -550 -10 -24 -58 -45 -104 -45 l-41 0 3 -37 3 -38 203 -3 202 -2 0 39
0 38 -51 5 c-34 4 -58 12 -72 27 -22 22 -22 22 -24 574 l-1 552 205 -617 205
-618 32 0 33 0 188 613 c103 336 190 614 192 616 2 3 2 -243 1 -547 -3 -550
-3 -551 -25 -573 -14 -15 -38 -23 -72 -27 l-51 -5 0 -38 0 -39 238 2 237 3 0
35 c0 35 0 35 -54 42 -35 4 -61 14 -75 27 -21 21 -21 27 -24 534 -3 526 0 577
36 593 9 4 40 10 67 13 49 6 50 6 50 41 l0 35 -196 3 -195 2 -154 -490 c-85
-269 -157 -490 -160 -490 -3 0 -77 221 -165 490 l-160 490 -207 0 -208 0 0
-40z"/>
<path d="M1670 2120 l0 -40 49 0 c33 0 56 -6 72 -19 l24 -19 3 -535 3 -535
-24 -27 c-18 -22 -35 -29 -75 -33 l-52 -5 0 -38 0 -39 235 0 235 0 0 40 c0 39
-1 40 -35 40 -55 0 -92 24 -104 68 -6 20 -11 98 -11 173 l0 136 74 79 c40 43
86 94 101 112 23 27 30 31 40 20 21 -22 307 -481 321 -515 18 -43 1 -59 -71
-68 l-55 -7 0 -39 0 -39 245 0 245 0 0 39 c0 37 -2 39 -38 45 -26 4 -50 18
-75 43 -21 21 -132 186 -247 367 l-209 329 36 41 c20 23 98 107 174 188 149
156 207 198 281 198 38 0 38 0 38 40 l0 40 -235 0 -235 0 0 -39 0 -40 47 -3
c39 -2 50 -8 62 -29 13 -23 12 -30 -7 -70 -20 -40 -459 -529 -483 -538 -7 -2
-9 103 -7 294 l3 297 28 24 c21 18 40 24 73 24 l44 0 0 40 0 40 -235 0 -235 0
0 -40z"/>
</g>
</svg>
